<?xml version="1.0" encoding="UTF-8" standalone="no"?>
<!DOCTYPE svg PUBLIC "-//W3C//DTD SVG 1.1//EN"
 "http://www.w3.org/Graphics/SVG/1.1/DTD/svg11.dtd">
<!-- Generated by graphviz version 11.0.0 (20240428.1522)
 -->
<!-- Title: G Pages: 1 -->
<svg width="1396pt" height="738pt"
 viewBox="0.00 0.00 1396.20 738.31" xmlns="http://www.w3.org/2000/svg" xmlns:xlink="http://www.w3.org/1999/xlink">
<g id="graph0" class="graph" transform="scale(1 1) rotate(0) translate(21.6 716.71)">
<title>G</title>
<polygon fill="#111111" stroke="none" points="-21.6,21.6 -21.6,-716.71 1374.6,-716.71 1374.6,21.6 -21.6,21.6"/>
<!-- App.jsx -->
<g id="node1" class="node">
<title>App.jsx</title>
<path fill="none" stroke="#c6c5fe" d="M175.71,-312.11C175.71,-312.11 128.79,-312.11 128.79,-312.11 124.71,-312.11 120.62,-308.03 120.62,-303.94 120.62,-303.94 120.62,-295.78 120.62,-295.78 120.62,-291.69 124.71,-287.61 128.79,-287.61 128.79,-287.61 175.71,-287.61 175.71,-287.61 179.79,-287.61 183.88,-291.69 183.88,-295.78 183.88,-295.78 183.88,-303.94 183.88,-303.94 183.88,-308.03 179.79,-312.11 175.71,-312.11"/>
<text text-anchor="middle" x="152.25" y="-294.81" font-family="Arial" font-size="14.00" fill="#c6c5fe">App.jsx</text>
</g>
<!-- component/authentication/firebaseConfig.js -->
<g id="node2" class="node">
<title>component/authentication/firebaseConfig.js</title>
<path fill="none" stroke="#cfffac" d="M1219.33,-406.11C1219.33,-406.11 946.67,-406.11 946.67,-406.11 942.58,-406.11 938.5,-402.03 938.5,-397.94 938.5,-397.94 938.5,-389.78 938.5,-389.78 938.5,-385.69 942.58,-381.61 946.67,-381.61 946.67,-381.61 1219.33,-381.61 1219.33,-381.61 1223.42,-381.61 1227.5,-385.69 1227.5,-389.78 1227.5,-389.78 1227.5,-397.94 1227.5,-397.94 1227.5,-402.03 1223.42,-406.11 1219.33,-406.11"/>
<text text-anchor="middle" x="1083" y="-388.81" font-family="Arial" font-size="14.00" fill="#cfffac">component/authentication/firebaseConfig.js</text>
</g>
<!-- App.jsx&#45;&gt;component/authentication/firebaseConfig.js -->
<g id="edge1" class="edge">
<title>App.jsx&#45;&gt;component/authentication/firebaseConfig.js</title>
<path fill="none" stroke="#757575" d="M184.21,-308.82C200.03,-313.09 219.66,-317.89 237.5,-320.86 476.18,-360.67 756.66,-379.45 926.76,-387.8"/>
<polygon fill="#757575" stroke="#757575" points="926.39,-391.29 936.55,-388.28 926.73,-384.3 926.39,-391.29"/>
</g>
<!-- component/footer/Footer.jsx -->
<g id="node3" class="node">
<title>component/footer/Footer.jsx</title>
<path fill="none" stroke="#c6c5fe" d="M473.71,-651.11C473.71,-651.11 294.79,-651.11 294.79,-651.11 290.71,-651.11 286.62,-647.03 286.62,-642.94 286.62,-642.94 286.62,-634.78 286.62,-634.78 286.62,-630.69 290.71,-626.61 294.79,-626.61 294.79,-626.61 473.71,-626.61 473.71,-626.61 477.79,-626.61 481.88,-630.69 481.88,-634.78 481.88,-634.78 481.88,-642.94 481.88,-642.94 481.88,-647.03 477.79,-651.11 473.71,-651.11"/>
<text text-anchor="middle" x="384.25" y="-633.81" font-family="Arial" font-size="14.00" fill="#c6c5fe">component/footer/Footer.jsx</text>
</g>
<!-- App.jsx&#45;&gt;component/footer/Footer.jsx -->
<g id="edge2" class="edge">
<title>App.jsx&#45;&gt;component/footer/Footer.jsx</title>
<path fill="none" stroke="#757575" d="M153.61,-312.47C155.49,-354.68 166.98,-492.86 237.5,-572.86 258.59,-596.79 290.09,-612.53 318.41,-622.62"/>
<polygon fill="#757575" stroke="#757575" points="317.05,-625.85 327.65,-625.73 319.28,-619.22 317.05,-625.85"/>
</g>
<!-- component/header/Header.jsx -->
<g id="node4" class="node">
<title>component/header/Header.jsx</title>
<path fill="none" stroke="#c6c5fe" d="M479.33,-127.11C479.33,-127.11 289.17,-127.11 289.17,-127.11 285.08,-127.11 281,-123.03 281,-118.94 281,-118.94 281,-110.78 281,-110.78 281,-106.69 285.08,-102.61 289.17,-102.61 289.17,-102.61 479.33,-102.61 479.33,-102.61 483.42,-102.61 487.5,-106.69 487.5,-110.78 487.5,-110.78 487.5,-118.94 487.5,-118.94 487.5,-123.03 483.42,-127.11 479.33,-127.11"/>
<text text-anchor="middle" x="384.25" y="-109.81" font-family="Arial" font-size="14.00" fill="#c6c5fe">component/header/Header.jsx</text>
</g>
<!-- App.jsx&#45;&gt;component/header/Header.jsx -->
<g id="edge3" class="edge">
<title>App.jsx&#45;&gt;component/header/Header.jsx</title>
<path fill="none" stroke="#757575" d="M156.04,-287.14C163.44,-256.65 186.58,-179.14 237.5,-141.86 247.28,-134.7 258.39,-129.26 270.01,-125.15"/>
<polygon fill="#757575" stroke="#757575" points="270.88,-128.55 279.36,-122.2 268.77,-121.87 270.88,-128.55"/>
</g>
<!-- features/pathSlice.js -->
<g id="node5" class="node">
<title>features/pathSlice.js</title>
<path fill="none" stroke="#cfffac" d="M798.71,-49.11C798.71,-49.11 670.79,-49.11 670.79,-49.11 666.71,-49.11 662.62,-45.03 662.62,-40.94 662.62,-40.94 662.62,-32.78 662.62,-32.78 662.62,-28.69 666.71,-24.61 670.79,-24.61 670.79,-24.61 798.71,-24.61 798.71,-24.61 802.79,-24.61 806.88,-28.69 806.88,-32.78 806.88,-32.78 806.88,-40.94 806.88,-40.94 806.88,-45.03 802.79,-49.11 798.71,-49.11"/>
<text text-anchor="middle" x="734.75" y="-31.81" font-family="Arial" font-size="14.00" fill="#cfffac">features/pathSlice.js</text>
</g>
<!-- App.jsx&#45;&gt;features/pathSlice.js -->
<g id="edge4" class="edge">
<title>App.jsx&#45;&gt;features/pathSlice.js</title>
<path fill="none" stroke="#757575" d="M158.23,-287.2C175.69,-242.84 233.32,-97.03 237.5,-93.86 269.72,-69.45 518.22,-50.36 650.88,-41.79"/>
<polygon fill="#757575" stroke="#757575" points="650.91,-45.3 660.67,-41.17 650.47,-38.31 650.91,-45.3"/>
</g>
<!-- pages/404/page404.jsx -->
<g id="node6" class="node">
<title>pages/404/page404.jsx</title>
<path fill="none" stroke="#cfffac" d="M459.08,-564.11C459.08,-564.11 309.42,-564.11 309.42,-564.11 305.33,-564.11 301.25,-560.03 301.25,-555.94 301.25,-555.94 301.25,-547.78 301.25,-547.78 301.25,-543.69 305.33,-539.61 309.42,-539.61 309.42,-539.61 459.08,-539.61 459.08,-539.61 463.17,-539.61 467.25,-543.69 467.25,-547.78 467.25,-547.78 467.25,-555.94 467.25,-555.94 467.25,-560.03 463.17,-564.11 459.08,-564.11"/>
<text text-anchor="middle" x="384.25" y="-546.81" font-family="Arial" font-size="14.00" fill="#cfffac">pages/404/page404.jsx</text>
</g>
<!-- App.jsx&#45;&gt;pages/404/page404.jsx -->
<g id="edge5" class="edge">
<title>App.jsx&#45;&gt;pages/404/page404.jsx</title>
<path fill="none" stroke="#757575" d="M153.82,-312.56C156.29,-351.33 169.33,-469 237.5,-525.86 252.27,-538.18 270.85,-545.52 289.76,-549.74"/>
<polygon fill="#757575" stroke="#757575" points="288.94,-553.14 299.42,-551.59 290.26,-546.27 288.94,-553.14"/>
</g>
<!-- pages/donate/Donate.jsx -->
<g id="node7" class="node">
<title>pages/donate/Donate.jsx</title>
<path fill="none" stroke="#c6c5fe" d="M813.33,-655.11C813.33,-655.11 656.17,-655.11 656.17,-655.11 652.08,-655.11 648,-651.03 648,-646.94 648,-646.94 648,-638.78 648,-638.78 648,-634.69 652.08,-630.61 656.17,-630.61 656.17,-630.61 813.33,-630.61 813.33,-630.61 817.42,-630.61 821.5,-634.69 821.5,-638.78 821.5,-638.78 821.5,-646.94 821.5,-646.94 821.5,-651.03 817.42,-655.11 813.33,-655.11"/>
<text text-anchor="middle" x="734.75" y="-637.81" font-family="Arial" font-size="14.00" fill="#c6c5fe">pages/donate/Donate.jsx</text>
</g>
<!-- App.jsx&#45;&gt;pages/donate/Donate.jsx -->
<g id="edge6" class="edge">
<title>App.jsx&#45;&gt;pages/donate/Donate.jsx</title>
<path fill="none" stroke="#757575" d="M154.64,-312.13C159.24,-346.55 177.29,-444.46 237.5,-489.86 342.66,-569.16 427.32,-449.64 531,-530.86 564.91,-557.43 532.99,-594.42 567,-620.86 586.69,-636.17 611.81,-643.71 636.54,-646.96"/>
<polygon fill="#757575" stroke="#757575" points="636.03,-650.43 646.34,-648.01 636.77,-643.47 636.03,-650.43"/>
</g>
<!-- pages/home/Home.jsx -->
<g id="node8" class="node">
<title>pages/home/Home.jsx</title>
<path fill="none" stroke="#c6c5fe" d="M455.33,-446.11C455.33,-446.11 313.17,-446.11 313.17,-446.11 309.08,-446.11 305,-442.03 305,-437.94 305,-437.94 305,-429.78 305,-429.78 305,-425.69 309.08,-421.61 313.17,-421.61 313.17,-421.61 455.33,-421.61 455.33,-421.61 459.42,-421.61 463.5,-425.69 463.5,-429.78 463.5,-429.78 463.5,-437.94 463.5,-437.94 463.5,-442.03 459.42,-446.11 455.33,-446.11"/>
<text text-anchor="middle" x="384.25" y="-428.81" font-family="Arial" font-size="14.00" fill="#c6c5fe">pages/home/Home.jsx</text>
</g>
<!-- App.jsx&#45;&gt;pages/home/Home.jsx -->
<g id="edge7" class="edge">
<title>App.jsx&#45;&gt;pages/home/Home.jsx</title>
<path fill="none" stroke="#757575" d="M166.07,-312.5C181.87,-327.57 210,-352.87 237.5,-369.86 268.8,-389.2 306.97,-405.74 336.4,-417.15"/>
<polygon fill="#757575" stroke="#757575" points="334.81,-420.29 345.4,-420.59 337.3,-413.75 334.81,-420.29"/>
</g>
<!-- pages/members/Members.jsx -->
<g id="node9" class="node">
<title>pages/members/Members.jsx</title>
<path fill="none" stroke="#c6c5fe" d="M829.08,-612.11C829.08,-612.11 640.42,-612.11 640.42,-612.11 636.33,-612.11 632.25,-608.03 632.25,-603.94 632.25,-603.94 632.25,-595.78 632.25,-595.78 632.25,-591.69 636.33,-587.61 640.42,-587.61 640.42,-587.61 829.08,-587.61 829.08,-587.61 833.17,-587.61 837.25,-591.69 837.25,-595.78 837.25,-595.78 837.25,-603.94 837.25,-603.94 837.25,-608.03 833.17,-612.11 829.08,-612.11"/>
<text text-anchor="middle" x="734.75" y="-594.81" font-family="Arial" font-size="14.00" fill="#c6c5fe">pages/members/Members.jsx</text>
</g>
<!-- App.jsx&#45;&gt;pages/members/Members.jsx -->
<g id="edge8" class="edge">
<title>App.jsx&#45;&gt;pages/members/Members.jsx</title>
<path fill="none" stroke="#757575" d="M156.03,-312.47C163.41,-342.67 186.51,-419.28 237.5,-454.86 345.62,-530.3 424.4,-420.29 531,-497.86 560.25,-519.15 538.04,-549.19 567,-570.86 582.71,-582.62 601.57,-590.21 620.86,-595.02"/>
<polygon fill="#757575" stroke="#757575" points="619.93,-598.4 630.45,-597.15 621.45,-591.56 619.93,-598.4"/>
</g>
<!-- pages/policy/privacyPolicy.jsx -->
<g id="node10" class="node">
<title>pages/policy/privacyPolicy.jsx</title>
<path fill="none" stroke="#c6c5fe" d="M477.83,-253.11C477.83,-253.11 290.67,-253.11 290.67,-253.11 286.58,-253.11 282.5,-249.03 282.5,-244.94 282.5,-244.94 282.5,-236.78 282.5,-236.78 282.5,-232.69 286.58,-228.61 290.67,-228.61 290.67,-228.61 477.83,-228.61 477.83,-228.61 481.92,-228.61 486,-232.69 486,-236.78 486,-236.78 486,-244.94 486,-244.94 486,-249.03 481.92,-253.11 477.83,-253.11"/>
<text text-anchor="middle" x="384.25" y="-235.81" font-family="Arial" font-size="14.00" fill="#c6c5fe">pages/policy/privacyPolicy.jsx</text>
</g>
<!-- App.jsx&#45;&gt;pages/policy/privacyPolicy.jsx -->
<g id="edge9" class="edge">
<title>App.jsx&#45;&gt;pages/policy/privacyPolicy.jsx</title>
<path fill="none" stroke="#757575" d="M184.27,-291.9C219.65,-282.83 278.35,-267.77 322.85,-256.36"/>
<polygon fill="#757575" stroke="#757575" points="323.55,-259.79 332.37,-253.91 321.81,-253.01 323.55,-259.79"/>
</g>
<!-- pages/policy/refundPolicy.jsx -->
<g id="node11" class="node">
<title>pages/policy/refundPolicy.jsx</title>
<path fill="none" stroke="#c6c5fe" d="M475.96,-210.11C475.96,-210.11 292.54,-210.11 292.54,-210.11 288.46,-210.11 284.38,-206.03 284.38,-201.94 284.38,-201.94 284.38,-193.78 284.38,-193.78 284.38,-189.69 288.46,-185.61 292.54,-185.61 292.54,-185.61 475.96,-185.61 475.96,-185.61 480.04,-185.61 484.12,-189.69 484.12,-193.78 484.12,-193.78 484.12,-201.94 484.12,-201.94 484.12,-206.03 480.04,-210.11 475.96,-210.11"/>
<text text-anchor="middle" x="384.25" y="-192.81" font-family="Arial" font-size="14.00" fill="#c6c5fe">pages/policy/refundPolicy.jsx</text>
</g>
<!-- App.jsx&#45;&gt;pages/policy/refundPolicy.jsx -->
<g id="edge10" class="edge">
<title>App.jsx&#45;&gt;pages/policy/refundPolicy.jsx</title>
<path fill="none" stroke="#757575" d="M162.26,-287.41C176.17,-269.25 204.7,-235.89 237.5,-219.86 248.61,-214.43 260.73,-210.26 273.07,-207.08"/>
<polygon fill="#757575" stroke="#757575" points="273.54,-210.56 282.47,-204.87 271.94,-203.75 273.54,-210.56"/>
</g>
<!-- pages/termsCondtions/TermsConditions.jsx -->
<g id="node12" class="node">
<title>pages/termsCondtions/TermsConditions.jsx</title>
<path fill="none" stroke="#c6c5fe" d="M522.83,-312.11C522.83,-312.11 245.67,-312.11 245.67,-312.11 241.58,-312.11 237.5,-308.03 237.5,-303.94 237.5,-303.94 237.5,-295.78 237.5,-295.78 237.5,-291.69 241.58,-287.61 245.67,-287.61 245.67,-287.61 522.83,-287.61 522.83,-287.61 526.92,-287.61 531,-291.69 531,-295.78 531,-295.78 531,-303.94 531,-303.94 531,-308.03 526.92,-312.11 522.83,-312.11"/>
<text text-anchor="middle" x="384.25" y="-294.81" font-family="Arial" font-size="14.00" fill="#c6c5fe">pages/termsCondtions/TermsConditions.jsx</text>
</g>
<!-- App.jsx&#45;&gt;pages/termsCondtions/TermsConditions.jsx -->
<g id="edge11" class="edge">
<title>App.jsx&#45;&gt;pages/termsCondtions/TermsConditions.jsx</title>
<path fill="none" stroke="#757575" d="M184.27,-299.86C195.96,-299.86 210.2,-299.86 225.63,-299.86"/>
<polygon fill="#757575" stroke="#757575" points="225.55,-303.36 235.55,-299.86 225.55,-296.36 225.55,-303.36"/>
</g>
<!-- pages/transactions/Transactions.jsx -->
<g id="node13" class="node">
<title>pages/transactions/Transactions.jsx</title>
<path fill="none" stroke="#c6c5fe" d="M847.08,-167.11C847.08,-167.11 622.42,-167.11 622.42,-167.11 618.33,-167.11 614.25,-163.03 614.25,-158.94 614.25,-158.94 614.25,-150.78 614.25,-150.78 614.25,-146.69 618.33,-142.61 622.42,-142.61 622.42,-142.61 847.08,-142.61 847.08,-142.61 851.17,-142.61 855.25,-146.69 855.25,-150.78 855.25,-150.78 855.25,-158.94 855.25,-158.94 855.25,-163.03 851.17,-167.11 847.08,-167.11"/>
<text text-anchor="middle" x="734.75" y="-149.81" font-family="Arial" font-size="14.00" fill="#c6c5fe">pages/transactions/Transactions.jsx</text>
</g>
<!-- App.jsx&#45;&gt;pages/transactions/Transactions.jsx -->
<g id="edge12" class="edge">
<title>App.jsx&#45;&gt;pages/transactions/Transactions.jsx</title>
<path fill="none" stroke="#757575" d="M157.51,-287.22C167.07,-261.12 192.93,-201.63 237.5,-176.86 297.87,-143.31 476.95,-143.13 602.56,-147.7"/>
<polygon fill="#757575" stroke="#757575" points="602.15,-151.18 612.28,-148.07 602.42,-144.19 602.15,-151.18"/>
</g>
<!-- component/footer/style.scss -->
<g id="node18" class="node">
<title>component/footer/style.scss</title>
<path fill="none" stroke="#c6c5fe" d="M1172.46,-695.11C1172.46,-695.11 993.54,-695.11 993.54,-695.11 989.46,-695.11 985.38,-691.03 985.38,-686.94 985.38,-686.94 985.38,-678.78 985.38,-678.78 985.38,-674.69 989.46,-670.61 993.54,-670.61 993.54,-670.61 1172.46,-670.61 1172.46,-670.61 1176.54,-670.61 1180.62,-674.69 1180.62,-678.78 1180.62,-678.78 1180.62,-686.94 1180.62,-686.94 1180.62,-691.03 1176.54,-695.11 1172.46,-695.11"/>
<text text-anchor="middle" x="1083" y="-677.81" font-family="Arial" font-size="14.00" fill="#c6c5fe">component/footer/style.scss</text>
</g>
<!-- component/footer/Footer.jsx&#45;&gt;component/footer/style.scss -->
<g id="edge18" class="edge">
<title>component/footer/Footer.jsx&#45;&gt;component/footer/style.scss</title>
<path fill="none" stroke="#757575" d="M465.13,-651.6C496.77,-656.19 533.52,-660.95 567,-663.86 707.04,-676.05 869.16,-680.43 973.52,-682"/>
<polygon fill="#757575" stroke="#757575" points="973.44,-685.5 983.49,-682.14 973.54,-678.5 973.44,-685.5"/>
</g>
<!-- component/header/Header.jsx&#45;&gt;component/authentication/firebaseConfig.js -->
<g id="edge20" class="edge">
<title>component/header/Header.jsx&#45;&gt;component/authentication/firebaseConfig.js</title>
<path fill="none" stroke="#757575" d="M487.99,-111.94C629.84,-108.9 871.79,-107.73 902.5,-133.86 964.63,-186.73 890.45,-247.93 938.5,-313.86 960.59,-344.17 997.85,-364.45 1028.86,-377.01"/>
<polygon fill="#757575" stroke="#757575" points="1027.54,-380.25 1038.13,-380.59 1030.06,-373.72 1027.54,-380.25"/>
</g>
<!-- component/header/Header.jsx&#45;&gt;features/pathSlice.js -->
<g id="edge22" class="edge">
<title>component/header/Header.jsx&#45;&gt;features/pathSlice.js</title>
<path fill="none" stroke="#757575" d="M487.7,-102.61C502.55,-99.12 517.39,-94.63 531,-88.86 549.17,-81.16 548.75,-70.37 567,-62.86 593.32,-52.04 623.67,-45.69 651.2,-41.97"/>
<polygon fill="#757575" stroke="#757575" points="651.41,-45.47 660.9,-40.77 650.54,-38.53 651.41,-45.47"/>
</g>
<!-- component/header/style.scss -->
<g id="node19" class="node">
<title>component/header/style.scss</title>
<path fill="none" stroke="#c6c5fe" d="M1175.83,-147.11C1175.83,-147.11 990.17,-147.11 990.17,-147.11 986.08,-147.11 982,-143.03 982,-138.94 982,-138.94 982,-130.78 982,-130.78 982,-126.69 986.08,-122.61 990.17,-122.61 990.17,-122.61 1175.83,-122.61 1175.83,-122.61 1179.92,-122.61 1184,-126.69 1184,-130.78 1184,-130.78 1184,-138.94 1184,-138.94 1184,-143.03 1179.92,-147.11 1175.83,-147.11"/>
<text text-anchor="middle" x="1083" y="-129.81" font-family="Arial" font-size="14.00" fill="#c6c5fe">component/header/style.scss</text>
</g>
<!-- component/header/Header.jsx&#45;&gt;component/header/style.scss -->
<g id="edge21" class="edge">
<title>component/header/Header.jsx&#45;&gt;component/header/style.scss</title>
<path fill="none" stroke="#757575" d="M487.56,-104.84C592.08,-96.31 758.95,-87.39 902.5,-100.86 941.23,-104.5 984.04,-112.45 1018.14,-119.75"/>
<polygon fill="#757575" stroke="#757575" points="1017.36,-123.16 1027.88,-121.87 1018.85,-116.33 1017.36,-123.16"/>
</g>
<!-- pages/donate/Donate.jsx&#45;&gt;component/authentication/firebaseConfig.js -->
<g id="edge30" class="edge">
<title>pages/donate/Donate.jsx&#45;&gt;component/authentication/firebaseConfig.js</title>
<path fill="none" stroke="#757575" d="M821.97,-650.68C850.88,-648.73 881.17,-641.01 902.5,-620.86 964.66,-562.15 880.21,-494.42 938.5,-431.86 946.55,-423.22 956.33,-416.45 966.94,-411.16"/>
<polygon fill="#757575" stroke="#757575" points="968.25,-414.41 975.97,-407.15 965.41,-408.02 968.25,-414.41"/>
</g>
<!-- pages/donate/style.scss -->
<g id="node25" class="node">
<title>pages/donate/style.scss</title>
<path fill="none" stroke="#c6c5fe" d="M1159.71,-652.11C1159.71,-652.11 1006.29,-652.11 1006.29,-652.11 1002.21,-652.11 998.12,-648.03 998.12,-643.94 998.12,-643.94 998.12,-635.78 998.12,-635.78 998.12,-631.69 1002.21,-627.61 1006.29,-627.61 1006.29,-627.61 1159.71,-627.61 1159.71,-627.61 1163.79,-627.61 1167.88,-631.69 1167.88,-635.78 1167.88,-635.78 1167.88,-643.94 1167.88,-643.94 1167.88,-648.03 1163.79,-652.11 1159.71,-652.11"/>
<text text-anchor="middle" x="1083" y="-634.81" font-family="Arial" font-size="14.00" fill="#c6c5fe">pages/donate/style.scss</text>
</g>
<!-- pages/donate/Donate.jsx&#45;&gt;pages/donate/style.scss -->
<g id="edge31" class="edge">
<title>pages/donate/Donate.jsx&#45;&gt;pages/donate/style.scss</title>
<path fill="none" stroke="#757575" d="M821.78,-642.12C871.78,-641.68 934.88,-641.14 986.42,-640.69"/>
<polygon fill="#757575" stroke="#757575" points="986.42,-644.19 996.39,-640.6 986.36,-637.19 986.42,-644.19"/>
</g>
<!-- pages/home/Home.jsx&#45;&gt;component/authentication/firebaseConfig.js -->
<g id="edge35" class="edge">
<title>pages/home/Home.jsx&#45;&gt;component/authentication/firebaseConfig.js</title>
<path fill="none" stroke="#757575" d="M463.85,-423.42C495.8,-419.53 533.11,-415.44 567,-412.86 687.6,-403.68 824.44,-398.9 926.73,-396.43"/>
<polygon fill="#757575" stroke="#757575" points="926.66,-399.93 936.58,-396.2 926.5,-392.93 926.66,-399.93"/>
</g>
<!-- component/authentication/SignIn.jsx -->
<g id="node14" class="node">
<title>component/authentication/SignIn.jsx</title>
<path fill="none" stroke="#c6c5fe" d="M847.83,-489.11C847.83,-489.11 621.67,-489.11 621.67,-489.11 617.58,-489.11 613.5,-485.03 613.5,-480.94 613.5,-480.94 613.5,-472.78 613.5,-472.78 613.5,-468.69 617.58,-464.61 621.67,-464.61 621.67,-464.61 847.83,-464.61 847.83,-464.61 851.92,-464.61 856,-468.69 856,-472.78 856,-472.78 856,-480.94 856,-480.94 856,-485.03 851.92,-489.11 847.83,-489.11"/>
<text text-anchor="middle" x="734.75" y="-471.81" font-family="Arial" font-size="14.00" fill="#c6c5fe">component/authentication/SignIn.jsx</text>
</g>
<!-- pages/home/Home.jsx&#45;&gt;component/authentication/SignIn.jsx -->
<g id="edge33" class="edge">
<title>pages/home/Home.jsx&#45;&gt;component/authentication/SignIn.jsx</title>
<path fill="none" stroke="#757575" d="M463.89,-443.56C509.71,-449.22 568.31,-456.45 619.18,-462.73"/>
<polygon fill="#757575" stroke="#757575" points="618.73,-466.2 629.08,-463.95 619.59,-459.25 618.73,-466.2"/>
</g>
<!-- component/authentication/SignUp.jsx -->
<g id="node16" class="node">
<title>component/authentication/SignUp.jsx</title>
<path fill="none" stroke="#c6c5fe" d="M850.83,-532.11C850.83,-532.11 618.67,-532.11 618.67,-532.11 614.58,-532.11 610.5,-528.03 610.5,-523.94 610.5,-523.94 610.5,-515.78 610.5,-515.78 610.5,-511.69 614.58,-507.61 618.67,-507.61 618.67,-507.61 850.83,-507.61 850.83,-507.61 854.92,-507.61 859,-511.69 859,-515.78 859,-515.78 859,-523.94 859,-523.94 859,-528.03 854.92,-532.11 850.83,-532.11"/>
<text text-anchor="middle" x="734.75" y="-514.81" font-family="Arial" font-size="14.00" fill="#c6c5fe">component/authentication/SignUp.jsx</text>
</g>
<!-- pages/home/Home.jsx&#45;&gt;component/authentication/SignUp.jsx -->
<g id="edge34" class="edge">
<title>pages/home/Home.jsx&#45;&gt;component/authentication/SignUp.jsx</title>
<path fill="none" stroke="#757575" d="M463.94,-438.63C486.58,-442.41 510.64,-448.88 531,-459.86 551.48,-470.9 546.28,-487.29 567,-497.86 577.15,-503.04 588.08,-507.15 599.32,-510.4"/>
<polygon fill="#757575" stroke="#757575" points="598.15,-513.71 608.71,-512.87 599.93,-506.94 598.15,-513.71"/>
</g>
<!-- component/messageWindow/MessageWindow.jsx -->
<g id="node20" class="node">
<title>component/messageWindow/MessageWindow.jsx</title>
<path fill="none" stroke="#c6c5fe" d="M894.33,-446.11C894.33,-446.11 575.17,-446.11 575.17,-446.11 571.08,-446.11 567,-442.03 567,-437.94 567,-437.94 567,-429.78 567,-429.78 567,-425.69 571.08,-421.61 575.17,-421.61 575.17,-421.61 894.33,-421.61 894.33,-421.61 898.42,-421.61 902.5,-425.69 902.5,-429.78 902.5,-429.78 902.5,-437.94 902.5,-437.94 902.5,-442.03 898.42,-446.11 894.33,-446.11"/>
<text text-anchor="middle" x="734.75" y="-428.81" font-family="Arial" font-size="14.00" fill="#c6c5fe">component/messageWindow/MessageWindow.jsx</text>
</g>
<!-- pages/home/Home.jsx&#45;&gt;component/messageWindow/MessageWindow.jsx -->
<g id="edge36" class="edge">
<title>pages/home/Home.jsx&#45;&gt;component/messageWindow/MessageWindow.jsx</title>
<path fill="none" stroke="#757575" d="M463.89,-433.86C491.28,-433.86 523.23,-433.86 555.37,-433.86"/>
<polygon fill="#757575" stroke="#757575" points="555.22,-437.36 565.22,-433.86 555.22,-430.36 555.22,-437.36"/>
</g>
<!-- pages/home/style.scss -->
<g id="node26" class="node">
<title>pages/home/style.scss</title>
<path fill="none" stroke="#c6c5fe" d="M1155.96,-566.11C1155.96,-566.11 1010.04,-566.11 1010.04,-566.11 1005.96,-566.11 1001.88,-562.03 1001.88,-557.94 1001.88,-557.94 1001.88,-549.78 1001.88,-549.78 1001.88,-545.69 1005.96,-541.61 1010.04,-541.61 1010.04,-541.61 1155.96,-541.61 1155.96,-541.61 1160.04,-541.61 1164.12,-545.69 1164.12,-549.78 1164.12,-549.78 1164.12,-557.94 1164.12,-557.94 1164.12,-562.03 1160.04,-566.11 1155.96,-566.11"/>
<text text-anchor="middle" x="1083" y="-548.81" font-family="Arial" font-size="14.00" fill="#c6c5fe">pages/home/style.scss</text>
</g>
<!-- pages/home/Home.jsx&#45;&gt;pages/home/style.scss -->
<g id="edge37" class="edge">
<title>pages/home/Home.jsx&#45;&gt;pages/home/style.scss</title>
<path fill="none" stroke="#757575" d="M463.63,-434.02C487.28,-437.5 511.98,-444.96 531,-459.86 562.01,-484.16 534.24,-518.98 567,-540.86 633.87,-585.53 860.9,-573.86 990.1,-562.96"/>
<polygon fill="#757575" stroke="#757575" points="990.35,-566.45 1000.01,-562.1 989.75,-559.48 990.35,-566.45"/>
</g>
<!-- pages/members/Members.jsx&#45;&gt;component/authentication/firebaseConfig.js -->
<g id="edge39" class="edge">
<title>pages/members/Members.jsx&#45;&gt;component/authentication/firebaseConfig.js</title>
<path fill="none" stroke="#757575" d="M815.67,-587.15C846.3,-578.63 879.4,-564.45 902.5,-540.86 938.19,-504.41 901.36,-466.84 938.5,-431.86 948.03,-422.89 959.42,-415.98 971.57,-410.67"/>
<polygon fill="#757575" stroke="#757575" points="972.5,-414.07 980.52,-407.13 969.93,-407.56 972.5,-414.07"/>
</g>
<!-- pages/members/style.scss -->
<g id="node27" class="node">
<title>pages/members/style.scss</title>
<path fill="none" stroke="#c6c5fe" d="M1168.33,-609.11C1168.33,-609.11 997.67,-609.11 997.67,-609.11 993.58,-609.11 989.5,-605.03 989.5,-600.94 989.5,-600.94 989.5,-592.78 989.5,-592.78 989.5,-588.69 993.58,-584.61 997.67,-584.61 997.67,-584.61 1168.33,-584.61 1168.33,-584.61 1172.42,-584.61 1176.5,-588.69 1176.5,-592.78 1176.5,-592.78 1176.5,-600.94 1176.5,-600.94 1176.5,-605.03 1172.42,-609.11 1168.33,-609.11"/>
<text text-anchor="middle" x="1083" y="-591.81" font-family="Arial" font-size="14.00" fill="#c6c5fe">pages/members/style.scss</text>
</g>
<!-- pages/members/Members.jsx&#45;&gt;pages/members/style.scss -->
<g id="edge40" class="edge">
<title>pages/members/Members.jsx&#45;&gt;pages/members/style.scss</title>
<path fill="none" stroke="#757575" d="M837.3,-598.98C881.45,-598.6 933.13,-598.15 977.6,-597.77"/>
<polygon fill="#757575" stroke="#757575" points="977.55,-601.27 987.52,-597.68 977.49,-594.27 977.55,-601.27"/>
</g>
<!-- pages/policy/privacyPolicy.jsx&#45;&gt;component/authentication/firebaseConfig.js -->
<g id="edge42" class="edge">
<title>pages/policy/privacyPolicy.jsx&#45;&gt;component/authentication/firebaseConfig.js</title>
<path fill="none" stroke="#757575" d="M486.5,-232.99C616.67,-224.73 834.1,-217.77 902.5,-256.86 928.51,-271.73 916.74,-293.26 938.5,-313.86 967.68,-341.49 1008.21,-362.94 1038.75,-376.64"/>
<polygon fill="#757575" stroke="#757575" points="1037.15,-379.76 1047.72,-380.56 1039.95,-373.35 1037.15,-379.76"/>
</g>
<!-- pages/policy/style.scss -->
<g id="node28" class="node">
<title>pages/policy/style.scss</title>
<path fill="none" stroke="#cfffac" d="M808.08,-210.11C808.08,-210.11 661.42,-210.11 661.42,-210.11 657.33,-210.11 653.25,-206.03 653.25,-201.94 653.25,-201.94 653.25,-193.78 653.25,-193.78 653.25,-189.69 657.33,-185.61 661.42,-185.61 661.42,-185.61 808.08,-185.61 808.08,-185.61 812.17,-185.61 816.25,-189.69 816.25,-193.78 816.25,-193.78 816.25,-201.94 816.25,-201.94 816.25,-206.03 812.17,-210.11 808.08,-210.11"/>
<text text-anchor="middle" x="734.75" y="-192.81" font-family="Arial" font-size="14.00" fill="#cfffac">pages/policy/style.scss</text>
</g>
<!-- pages/policy/privacyPolicy.jsx&#45;&gt;pages/policy/style.scss -->
<g id="edge43" class="edge">
<title>pages/policy/privacyPolicy.jsx&#45;&gt;pages/policy/style.scss</title>
<path fill="none" stroke="#757575" d="M486.05,-228.42C535.09,-222.37 593.63,-215.15 641.48,-209.25"/>
<polygon fill="#757575" stroke="#757575" points="641.78,-212.74 651.27,-208.04 640.92,-205.79 641.78,-212.74"/>
</g>
<!-- pages/policy/refundPolicy.jsx&#45;&gt;pages/policy/style.scss -->
<g id="edge44" class="edge">
<title>pages/policy/refundPolicy.jsx&#45;&gt;pages/policy/style.scss</title>
<path fill="none" stroke="#757575" d="M484.18,-197.86C533.55,-197.86 592.91,-197.86 641.35,-197.86"/>
<polygon fill="#757575" stroke="#757575" points="641.26,-201.36 651.26,-197.86 641.26,-194.36 641.26,-201.36"/>
</g>
<!-- pages/termsCondtions/TermsConditions.jsx&#45;&gt;component/authentication/firebaseConfig.js -->
<g id="edge45" class="edge">
<title>pages/termsCondtions/TermsConditions.jsx&#45;&gt;component/authentication/firebaseConfig.js</title>
<path fill="none" stroke="#757575" d="M531.47,-303.91C635.63,-308.69 778.55,-319.11 902.5,-341.86 948.48,-350.3 999.57,-365.71 1035.45,-377.58"/>
<polygon fill="#757575" stroke="#757575" points="1034.04,-380.8 1044.64,-380.65 1036.26,-374.16 1034.04,-380.8"/>
</g>
<!-- pages/termsCondtions/style.scss -->
<g id="node29" class="node">
<title>pages/termsCondtions/style.scss</title>
<path fill="none" stroke="#cfffac" d="M839.96,-290.11C839.96,-290.11 629.54,-290.11 629.54,-290.11 625.46,-290.11 621.38,-286.03 621.38,-281.94 621.38,-281.94 621.38,-273.78 621.38,-273.78 621.38,-269.69 625.46,-265.61 629.54,-265.61 629.54,-265.61 839.96,-265.61 839.96,-265.61 844.04,-265.61 848.12,-269.69 848.12,-273.78 848.12,-273.78 848.12,-281.94 848.12,-281.94 848.12,-286.03 844.04,-290.11 839.96,-290.11"/>
<text text-anchor="middle" x="734.75" y="-272.81" font-family="Arial" font-size="14.00" fill="#cfffac">pages/termsCondtions/style.scss</text>
</g>
<!-- pages/termsCondtions/TermsConditions.jsx&#45;&gt;pages/termsCondtions/style.scss -->
<g id="edge46" class="edge">
<title>pages/termsCondtions/TermsConditions.jsx&#45;&gt;pages/termsCondtions/style.scss</title>
<path fill="none" stroke="#757575" d="M531.28,-290.64C557.42,-288.99 584.43,-287.29 609.88,-285.68"/>
<polygon fill="#757575" stroke="#757575" points="609.79,-289.19 619.55,-285.07 609.35,-282.21 609.79,-289.19"/>
</g>
<!-- pages/transactions/Transactions.jsx&#45;&gt;component/authentication/firebaseConfig.js -->
<g id="edge47" class="edge">
<title>pages/transactions/Transactions.jsx&#45;&gt;component/authentication/firebaseConfig.js</title>
<path fill="none" stroke="#757575" d="M855.35,-153.21C872.68,-157.67 889.14,-165.08 902.5,-176.86 949.73,-218.49 899.92,-264.11 938.5,-313.86 961.8,-343.9 999.73,-364.35 1030.75,-377.05"/>
<polygon fill="#757575" stroke="#757575" points="1029.4,-380.28 1039.99,-380.67 1031.95,-373.76 1029.4,-380.28"/>
</g>
<!-- pages/transactions/style.scss -->
<g id="node30" class="node">
<title>pages/transactions/style.scss</title>
<path fill="none" stroke="#c6c5fe" d="M1175.83,-305.11C1175.83,-305.11 990.17,-305.11 990.17,-305.11 986.08,-305.11 982,-301.03 982,-296.94 982,-296.94 982,-288.78 982,-288.78 982,-284.69 986.08,-280.61 990.17,-280.61 990.17,-280.61 1175.83,-280.61 1175.83,-280.61 1179.92,-280.61 1184,-284.69 1184,-288.78 1184,-288.78 1184,-296.94 1184,-296.94 1184,-301.03 1179.92,-305.11 1175.83,-305.11"/>
<text text-anchor="middle" x="1083" y="-287.81" font-family="Arial" font-size="14.00" fill="#c6c5fe">pages/transactions/style.scss</text>
</g>
<!-- pages/transactions/Transactions.jsx&#45;&gt;pages/transactions/style.scss -->
<g id="edge48" class="edge">
<title>pages/transactions/Transactions.jsx&#45;&gt;pages/transactions/style.scss</title>
<path fill="none" stroke="#757575" d="M855.73,-164.17C871.73,-167.29 887.7,-171.42 902.5,-176.86 963.99,-199.48 1026.05,-246.08 1058.64,-272.82"/>
<polygon fill="#757575" stroke="#757575" points="1056.31,-275.44 1066.24,-279.15 1060.79,-270.06 1056.31,-275.44"/>
</g>
<!-- component/authentication/SignIn.jsx&#45;&gt;component/authentication/firebaseConfig.js -->
<g id="edge13" class="edge">
<title>component/authentication/SignIn.jsx&#45;&gt;component/authentication/firebaseConfig.js</title>
<path fill="none" stroke="#757575" d="M856.15,-467.39C872,-464.29 887.82,-460.22 902.5,-454.86 920.34,-448.35 921.12,-439.49 938.5,-431.86 959.7,-422.56 983.69,-415.1 1005.9,-409.35"/>
<polygon fill="#757575" stroke="#757575" points="1006.66,-412.76 1015.51,-406.94 1004.96,-405.97 1006.66,-412.76"/>
</g>
<!-- component/authentication/style.scss -->
<g id="node15" class="node">
<title>component/authentication/style.scss</title>
<path fill="none" stroke="#c6c5fe" d="M1196.83,-523.11C1196.83,-523.11 969.17,-523.11 969.17,-523.11 965.08,-523.11 961,-519.03 961,-514.94 961,-514.94 961,-506.78 961,-506.78 961,-502.69 965.08,-498.61 969.17,-498.61 969.17,-498.61 1196.83,-498.61 1196.83,-498.61 1200.92,-498.61 1205,-502.69 1205,-506.78 1205,-506.78 1205,-514.94 1205,-514.94 1205,-519.03 1200.92,-523.11 1196.83,-523.11"/>
<text text-anchor="middle" x="1083" y="-505.81" font-family="Arial" font-size="14.00" fill="#c6c5fe">component/authentication/style.scss</text>
</g>
<!-- component/authentication/SignIn.jsx&#45;&gt;component/authentication/style.scss -->
<g id="edge14" class="edge">
<title>component/authentication/SignIn.jsx&#45;&gt;component/authentication/style.scss</title>
<path fill="none" stroke="#757575" d="M856.37,-488.71C886.44,-491.66 918.84,-494.84 949.46,-497.85"/>
<polygon fill="#757575" stroke="#757575" points="948.84,-501.3 959.14,-498.8 949.53,-494.34 948.84,-501.3"/>
</g>
<!-- mixins.scss -->
<g id="node17" class="node">
<title>mixins.scss</title>
<path fill="none" stroke="#cfffac" d="M1344.83,-544.11C1344.83,-544.11 1271.67,-544.11 1271.67,-544.11 1267.58,-544.11 1263.5,-540.03 1263.5,-535.94 1263.5,-535.94 1263.5,-527.78 1263.5,-527.78 1263.5,-523.69 1267.58,-519.61 1271.67,-519.61 1271.67,-519.61 1344.83,-519.61 1344.83,-519.61 1348.92,-519.61 1353,-523.69 1353,-527.78 1353,-527.78 1353,-535.94 1353,-535.94 1353,-540.03 1348.92,-544.11 1344.83,-544.11"/>
<text text-anchor="middle" x="1308.25" y="-526.81" font-family="Arial" font-size="14.00" fill="#cfffac">mixins.scss</text>
</g>
<!-- component/authentication/style.scss&#45;&gt;mixins.scss -->
<g id="edge17" class="edge">
<title>component/authentication/style.scss&#45;&gt;mixins.scss</title>
<path fill="none" stroke="#757575" d="M1205.42,-522.28C1221.73,-523.82 1237.75,-525.32 1252.08,-526.67"/>
<polygon fill="#757575" stroke="#757575" points="1251.4,-530.12 1261.68,-527.57 1252.05,-523.15 1251.4,-530.12"/>
</g>
<!-- component/authentication/SignUp.jsx&#45;&gt;component/authentication/firebaseConfig.js -->
<g id="edge15" class="edge">
<title>component/authentication/SignUp.jsx&#45;&gt;component/authentication/firebaseConfig.js</title>
<path fill="none" stroke="#757575" d="M859.08,-517.05C874.56,-512.92 889.5,-506.78 902.5,-497.86 930.05,-478.96 912.21,-452.48 938.5,-431.86 950.41,-422.52 964.41,-415.46 978.92,-410.13"/>
<polygon fill="#757575" stroke="#757575" points="979.75,-413.55 988.11,-407.04 977.52,-406.91 979.75,-413.55"/>
</g>
<!-- component/authentication/SignUp.jsx&#45;&gt;component/authentication/style.scss -->
<g id="edge16" class="edge">
<title>component/authentication/SignUp.jsx&#45;&gt;component/authentication/style.scss</title>
<path fill="none" stroke="#757575" d="M859.29,-516.65C888.48,-515.89 919.72,-515.08 949.3,-514.31"/>
<polygon fill="#757575" stroke="#757575" points="949.13,-517.82 959.03,-514.06 948.94,-510.82 949.13,-517.82"/>
</g>
<!-- component/footer/style.scss&#45;&gt;mixins.scss -->
<g id="edge19" class="edge">
<title>component/footer/style.scss&#45;&gt;mixins.scss</title>
<path fill="none" stroke="#757575" d="M1180.88,-679.66C1197.37,-675.95 1213.63,-670.04 1227.5,-660.86 1265.88,-635.46 1289.03,-584.61 1299.85,-554.9"/>
<polygon fill="#757575" stroke="#757575" points="1303.06,-556.32 1303.02,-545.73 1296.45,-554.03 1303.06,-556.32"/>
</g>
<!-- component/header/style.scss&#45;&gt;mixins.scss -->
<g id="edge23" class="edge">
<title>component/header/style.scss&#45;&gt;mixins.scss</title>
<path fill="none" stroke="#757575" d="M1102.28,-147.41C1132.69,-169.22 1193.66,-217.05 1227.5,-271.86 1275.88,-350.23 1296.84,-460.13 1304.07,-508"/>
<polygon fill="#757575" stroke="#757575" points="1300.59,-508.39 1305.47,-517.79 1307.52,-507.39 1300.59,-508.39"/>
</g>
<!-- component/messageWindow/MessageWindow.jsx&#45;&gt;component/authentication/firebaseConfig.js -->
<g id="edge24" class="edge">
<title>component/messageWindow/MessageWindow.jsx&#45;&gt;component/authentication/firebaseConfig.js</title>
<path fill="none" stroke="#757575" d="M845.78,-421.15C882.37,-416.92 923.31,-412.19 960.7,-407.87"/>
<polygon fill="#757575" stroke="#757575" points="960.62,-411.41 970.16,-406.78 959.82,-404.45 960.62,-411.41"/>
</g>
<!-- component/messageWindow/style.scss -->
<g id="node21" class="node">
<title>component/messageWindow/style.scss</title>
<path fill="none" stroke="#c6c5fe" d="M1208.83,-465.11C1208.83,-465.11 957.17,-465.11 957.17,-465.11 953.08,-465.11 949,-461.03 949,-456.94 949,-456.94 949,-448.78 949,-448.78 949,-444.69 953.08,-440.61 957.17,-440.61 957.17,-440.61 1208.83,-440.61 1208.83,-440.61 1212.92,-440.61 1217,-444.69 1217,-448.78 1217,-448.78 1217,-456.94 1217,-456.94 1217,-461.03 1212.92,-465.11 1208.83,-465.11"/>
<text text-anchor="middle" x="1083" y="-447.81" font-family="Arial" font-size="14.00" fill="#c6c5fe">component/messageWindow/style.scss</text>
</g>
<!-- component/messageWindow/MessageWindow.jsx&#45;&gt;component/messageWindow/style.scss -->
<g id="edge25" class="edge">
<title>component/messageWindow/MessageWindow.jsx&#45;&gt;component/messageWindow/style.scss</title>
<path fill="none" stroke="#757575" d="M902.79,-443.03C914.33,-443.66 925.91,-444.3 937.32,-444.92"/>
<polygon fill="#757575" stroke="#757575" points="936.98,-448.41 947.16,-445.46 937.36,-441.42 936.98,-448.41"/>
</g>
<!-- component/messageWindow/style.scss&#45;&gt;mixins.scss -->
<g id="edge26" class="edge">
<title>component/messageWindow/style.scss&#45;&gt;mixins.scss</title>
<path fill="none" stroke="#757575" d="M1146.08,-465.54C1171.72,-471.63 1201.46,-479.8 1227.5,-489.86 1244.3,-496.35 1262.11,-505.49 1276.63,-513.59"/>
<polygon fill="#757575" stroke="#757575" points="1274.82,-516.59 1285.24,-518.5 1278.28,-510.51 1274.82,-516.59"/>
</g>
<!-- index.scss -->
<g id="node22" class="node">
<title>index.scss</title>
<path fill="none" stroke="#cfffac" d="M185.83,-124.11C185.83,-124.11 118.67,-124.11 118.67,-124.11 114.58,-124.11 110.5,-120.03 110.5,-115.94 110.5,-115.94 110.5,-107.78 110.5,-107.78 110.5,-103.69 114.58,-99.61 118.67,-99.61 118.67,-99.61 185.83,-99.61 185.83,-99.61 189.92,-99.61 194,-103.69 194,-107.78 194,-107.78 194,-115.94 194,-115.94 194,-120.03 189.92,-124.11 185.83,-124.11"/>
<text text-anchor="middle" x="152.25" y="-106.81" font-family="Arial" font-size="14.00" fill="#cfffac">index.scss</text>
</g>
<!-- main.jsx -->
<g id="node23" class="node">
<title>main.jsx</title>
<path fill="none" stroke="#c6c5fe" d="M58.83,-167.11C58.83,-167.11 8.17,-167.11 8.17,-167.11 4.08,-167.11 0,-163.03 0,-158.94 0,-158.94 0,-150.78 0,-150.78 0,-146.69 4.08,-142.61 8.17,-142.61 8.17,-142.61 58.83,-142.61 58.83,-142.61 62.92,-142.61 67,-146.69 67,-150.78 67,-150.78 67,-158.94 67,-158.94 67,-163.03 62.92,-167.11 58.83,-167.11"/>
<text text-anchor="middle" x="33.5" y="-149.81" font-family="Arial" font-size="14.00" fill="#c6c5fe">main.jsx</text>
</g>
<!-- main.jsx&#45;&gt;App.jsx -->
<g id="edge27" class="edge">
<title>main.jsx&#45;&gt;App.jsx</title>
<path fill="none" stroke="#757575" d="M44.66,-167.48C64.67,-192.33 109.38,-247.86 134.07,-278.52"/>
<polygon fill="#757575" stroke="#757575" points="131.09,-280.4 140.08,-285.99 136.54,-276.01 131.09,-280.4"/>
</g>
<!-- main.jsx&#45;&gt;index.scss -->
<g id="edge28" class="edge">
<title>main.jsx&#45;&gt;index.scss</title>
<path fill="none" stroke="#757575" d="M67.33,-142.77C79.45,-138.31 93.4,-133.17 106.4,-128.38"/>
<polygon fill="#757575" stroke="#757575" points="107.44,-131.73 115.62,-124.98 105.02,-125.16 107.44,-131.73"/>
</g>
<!-- store/store.js -->
<g id="node24" class="node">
<title>store/store.js</title>
<path fill="none" stroke="#c6c5fe" d="M193.33,-167.11C193.33,-167.11 111.17,-167.11 111.17,-167.11 107.08,-167.11 103,-163.03 103,-158.94 103,-158.94 103,-150.78 103,-150.78 103,-146.69 107.08,-142.61 111.17,-142.61 111.17,-142.61 193.33,-142.61 193.33,-142.61 197.42,-142.61 201.5,-146.69 201.5,-150.78 201.5,-150.78 201.5,-158.94 201.5,-158.94 201.5,-163.03 197.42,-167.11 193.33,-167.11"/>
<text text-anchor="middle" x="152.25" y="-149.81" font-family="Arial" font-size="14.00" fill="#c6c5fe">store/store.js</text>
</g>
<!-- main.jsx&#45;&gt;store/store.js -->
<g id="edge29" class="edge">
<title>main.jsx&#45;&gt;store/store.js</title>
<path fill="none" stroke="#757575" d="M67.33,-154.86C74.76,-154.86 82.87,-154.86 91.03,-154.86"/>
<polygon fill="#757575" stroke="#757575" points="91.02,-158.36 101.02,-154.86 91.02,-151.36 91.02,-158.36"/>
</g>
<!-- store/store.js&#45;&gt;features/pathSlice.js -->
<g id="edge50" class="edge">
<title>store/store.js&#45;&gt;features/pathSlice.js</title>
<path fill="none" stroke="#757575" d="M188.79,-142.11C193.39,-139.51 197.79,-136.44 201.5,-132.86 227.25,-108.02 207.53,-80.4 237.5,-60.86 372.13,26.91 573.66,-0.37 673.39,-21.72"/>
<polygon fill="#757575" stroke="#757575" points="672.46,-25.1 682.98,-23.83 673.96,-18.26 672.46,-25.1"/>
</g>
<!-- pages/donate/style.scss&#45;&gt;mixins.scss -->
<g id="edge32" class="edge">
<title>pages/donate/style.scss&#45;&gt;mixins.scss</title>
<path fill="none" stroke="#757575" d="M1168.21,-636.48C1188.47,-633.14 1209.46,-627.43 1227.5,-617.86 1255.66,-602.93 1279.2,-574.1 1293.25,-553.95"/>
<polygon fill="#757575" stroke="#757575" points="1296.02,-556.1 1298.68,-545.85 1290.2,-552.2 1296.02,-556.1"/>
</g>
<!-- pages/home/style.scss&#45;&gt;mixins.scss -->
<g id="edge38" class="edge">
<title>pages/home/style.scss&#45;&gt;mixins.scss</title>
<path fill="none" stroke="#757575" d="M1164.6,-545.92C1193.54,-543.07 1225.5,-539.92 1251.82,-537.32"/>
<polygon fill="#757575" stroke="#757575" points="1251.99,-540.82 1261.6,-536.36 1251.31,-533.86 1251.99,-540.82"/>
</g>
<!-- pages/members/style.scss&#45;&gt;mixins.scss -->
<g id="edge41" class="edge">
<title>pages/members/style.scss&#45;&gt;mixins.scss</title>
<path fill="none" stroke="#757575" d="M1176.97,-587.37C1194.03,-584.29 1211.49,-580.23 1227.5,-574.86 1245.44,-568.85 1264.12,-559 1278.89,-550.24"/>
<polygon fill="#757575" stroke="#757575" points="1280.43,-553.4 1287.14,-545.2 1276.78,-547.43 1280.43,-553.4"/>
</g>
<!-- pages/transactions/style.scss&#45;&gt;mixins.scss -->
<g id="edge49" class="edge">
<title>pages/transactions/style.scss&#45;&gt;mixins.scss</title>
<path fill="none" stroke="#757575" d="M1119.42,-305.6C1151.07,-318.48 1197.03,-341.03 1227.5,-372.86 1265.9,-412.97 1289.7,-475.17 1300.46,-508.65"/>
<polygon fill="#757575" stroke="#757575" points="1296.98,-509.24 1303.28,-517.76 1303.67,-507.17 1296.98,-509.24"/>
</g>
</g>
</svg>
